# xmcd CD database file
#
# Track frame offsets:
#	150
#	17943
#	33881
#	50318
#	68509
#	84489
#	100429
#	116704
#	134642
#	155044
#	173168
#
# Disc length: 2505 seconds
#
# Revision: 5
# Processed by: cddbd v1.5.2PL0 Copyright (c) Steve Scherf et al.
# Submitted via: CDex 1.51
#
DISCID=9109c70b
DTITLE=Zucchero Sugar Fornaciari - Fly
DYEAR=2006
DGENRE=Blues
TTITLE0=Bacco perbacco
TTITLE1=Un kilo
TTITLE2=Occhi
TTITLE3=Quanti anni ho
TTITLE4=Cuba libre
TTITLE5=È delicato
TTITLE6=L'amore è nell'aria
TTITLE7=Pronto
TTITLE8=Let it shine
TTITLE9=Troppa fedeltà
TTITLE10=E di grazia plena
EXTD=YEAR: 2006
EXTT0=
EXTT1=
EXTT2=
EXTT3=
EXTT4=
EXTT5=
EXTT6=
EXTT7=
EXTT8=
EXTT9=
EXTT10=
PLAYORDER=
